<svg xmlns="http://www.w3.org/2000/svg" xmlns:xlink="http://www.w3.org/1999/xlink" version="1.1" viewBox="-1110 -542 2398 1196" width="2398px" height="1196px"><defs><style>@font-face{
    font-family:"DIN Next";
    font-weight: 400;
    src:url("https://whimsical.com/fonts/139e8e25-0eea-4cb4-a5d4-79048803e73d.eot?#iefix");
    src:url("https://whimsical.com/fonts/139e8e25-0eea-4cb4-a5d4-79048803e73d.eot?#iefix") format("eot"),url("https://whimsical.com/fonts/094b15e3-94bd-435b-a595-d40edfde661a.woff2") format("woff2"),url("https://whimsical.com/fonts/7e5fbe11-4858-4bd1-9ec6-a1d9f9d227aa.woff") format("woff"),url("https://whimsical.com/fonts/0f11eff9-9f05-46f5-9703-027c510065d7.ttf") format("truetype"),url("https://whimsical.com/fonts/48b61978-3f30-4274-823c-5cdcd1876918.svg#48b61978-3f30-4274-823c-5cdcd1876918") format("svg");
}
@font-face{
    font-family:"DIN Next";
    font-weight: 400;
    font-style: italic;
    src:url("https://whimsical.com/fonts/df24d5e8-5087-42fd-99b1-b16042d666c8.eot?#iefix");
    src:url("https://whimsical.com/fonts/df24d5e8-5087-42fd-99b1-b16042d666c8.eot?#iefix") format("eot"),url("https://whimsical.com/fonts/46251881-ffe9-4bfb-99c7-d6ce3bebaf3e.woff2") format("woff2"),url("https://whimsical.com/fonts/790ebbf2-62c5-4a32-946f-99d405f9243e.woff") format("woff"),url("https://whimsical.com/fonts/d28199e6-0f4a-42df-97f4-606701c6f75a.ttf") format("truetype"),url("https://whimsical.com/fonts/37a462c0-d86e-492c-b9ab-35e6bd417f6c.svg#37a462c0-d86e-492c-b9ab-35e6bd417f6c") format("svg");
}
@font-face{
    font-weight: 500;
    font-family:"DIN Next";
    src:url("https://whimsical.com/fonts/c5b058fc-55ce-4e06-a175-5c7d9a7e90f4.eot?#iefix");
    src:url("https://whimsical.com/fonts/c5b058fc-55ce-4e06-a175-5c7d9a7e90f4.eot?#iefix") format("eot"),url("https://whimsical.com/fonts/7b29ae40-30ff-4f99-a2b9-cde88669fa2f.woff2") format("woff2"),url("https://whimsical.com/fonts/bf73077c-e354-4562-a085-f4703eb1d653.woff") format("woff"),url("https://whimsical.com/fonts/0ffa6947-5317-4d07-b525-14d08a028821.ttf") format("truetype"),url("https://whimsical.com/fonts/9e423e45-5450-4991-a157-dbe6cf61eb4e.svg#9e423e45-5450-4991-a157-dbe6cf61eb4e") format("svg");
}
@font-face{
    font-family:"DIN Next";
    font-weight: 500;
    font-style: italic;
    src:url("https://whimsical.com/fonts/9897c008-fd65-48a4-afc7-36de2fea97b9.eot?#iefix");
    src:url("https://whimsical.com/fonts/9897c008-fd65-48a4-afc7-36de2fea97b9.eot?#iefix") format("eot"),url("https://whimsical.com/fonts/c7717981-647d-4b76-8817-33062e42d11f.woff2") format("woff2"),url("https://whimsical.com/fonts/b852cd4c-1255-40b1-a2be-73a9105b0155.woff") format("woff"),url("https://whimsical.com/fonts/821b00ad-e741-4e2d-af1a-85594367c8a2.ttf") format("truetype"),url("https://whimsical.com/fonts/d3e3b689-a6b0-45f2-b279-f5e194f87409.svg#d3e3b689-a6b0-45f2-b279-f5e194f87409") format("svg");
}
@font-face{
    font-weight: 700;
    font-family:"DIN Next";
    src:url("https://whimsical.com/fonts/81cd3b08-fd39-4ae3-8d05-9d24709eba84.eot?#iefix");
    src:url("https://whimsical.com/fonts/81cd3b08-fd39-4ae3-8d05-9d24709eba84.eot?#iefix") format("eot"),url("https://whimsical.com/fonts/31704504-4671-47a6-a61e-397f07410d91.woff2") format("woff2"),url("https://whimsical.com/fonts/b8a280da-481f-44a0-8d9c-1bc64bd7227c.woff") format("woff"),url("https://whimsical.com/fonts/276d122a-0fab-447b-9fc0-5d7fb0eafce2.ttf") format("truetype"),url("https://whimsical.com/fonts/8fb8273a-8213-4928-808b-b5bfaf3fd7e9.svg#8fb8273a-8213-4928-808b-b5bfaf3fd7e9") format("svg");
}
@font-face{
    font-family:"DIN Next";
    font-weight: 700;
    font-style: italic;
    src:url("https://whimsical.com/fonts/00cc6df3-ed32-4004-8dd8-1c576600a408.eot?#iefix");
    src:url("https://whimsical.com/fonts/00cc6df3-ed32-4004-8dd8-1c576600a408.eot?#iefix") format("eot"),url("https://whimsical.com/fonts/4132c4c8-680c-4d6d-9251-a2da38503bbd.woff2") format("woff2"),url("https://whimsical.com/fonts/366401fe-6df4-47be-8f55-8a411cff0dd2.woff") format("woff"),url("https://whimsical.com/fonts/dbe4f7ba-fc16-44a6-a577-571620e9edaf.ttf") format("truetype"),url("https://whimsical.com/fonts/f874edca-ee87-4ccf-8b1d-921fbc3c1c36.svg#f874edca-ee87-4ccf-8b1d-921fbc3c1c36") format("svg");
}

@font-face {
    font-family: 'PFDINMonoPro';
    src:url('https://whimsical.com/fonts/PFDINMonoPro-Regular.woff') format('woff');
    font-weight: 400;
}
@font-face {
    font-family: 'PFDINMonoPro';
    src:url('https://whimsical.com/fonts/PFDINMonoPro-Italic.woff') format('woff');
    font-style: italic;
    font-weight: 400;
}
@font-face {
    font-family: 'PFDINMonoPro';
    src:url('https://whimsical.com/fonts/PFDINMonoPro-Bold.woff') format('woff');
    font-weight: 700;
}
@font-face {
    font-family: 'PFDINMonoPro';
    src:url('https://whimsical.com/fonts/PFDINMonoPro-BoldItalic.woff') format('woff');
    font-style: italic;
    font-weight: 700;
}
* {-webkit-font-smoothing: auto; -moz-osx-font-smoothing: auto;}@media print { svg { width: 100%; height: 100%; } }</style><filter id="fill-shadow" x="-100%" y="-100%" width="300%" height="300%"><feGaussianBlur in="SourceAlpha" stdDeviation="6"></feGaussianBlur><feOffset result="offsetblur" dx="0" dy="2"></feOffset><feComponentTransfer result="s0"><feFuncA type="linear" slope="0.16"></feFuncA></feComponentTransfer><feMerge><feMergeNode in="s0"></feMergeNode><feMergeNode in="SourceGraphic"></feMergeNode></feMerge></filter><filter id="fill-light-shadow" x="-100%" y="-100%" width="300%" height="300%"><feGaussianBlur in="SourceAlpha" stdDeviation="6"></feGaussianBlur><feOffset result="offsetblur" dx="0" dy="2"></feOffset><feComponentTransfer result="s0"><feFuncA type="linear" slope="0.04"></feFuncA></feComponentTransfer><feMerge><feMergeNode in="s0"></feMergeNode><feMergeNode in="SourceGraphic"></feMergeNode></feMerge></filter><filter id="image-shadow" x="-100%" y="-100%" width="300%" height="300%"><feGaussianBlur in="SourceAlpha" stdDeviation="8"></feGaussianBlur><feOffset result="offsetblur" dx="0" dy="3"></feOffset><feComponentTransfer result="s0"><feFuncA type="linear" slope="0.06"></feFuncA></feComponentTransfer><feMerge><feMergeNode in="s0"></feMergeNode><feMergeNode in="SourceGraphic"></feMergeNode></feMerge></filter><filter id="frame-shadow" x="-100%" y="-100%" width="300%" height="300%"><feGaussianBlur in="SourceAlpha" stdDeviation="8"></feGaussianBlur><feOffset result="offsetblur" dx="0" dy="3"></feOffset><feComponentTransfer result="s0"><feFuncA type="linear" slope="0.06"></feFuncA></feComponentTransfer><feMerge><feMergeNode in="s0"></feMergeNode><feMergeNode in="SourceGraphic"></feMergeNode></feMerge></filter><filter id="badge-shadow" x="-100%" y="-100%" width="300%" height="300%"><feGaussianBlur in="SourceAlpha" stdDeviation="6"></feGaussianBlur><feOffset result="offsetblur" dx="0" dy="2"></feOffset><feComponentTransfer result="s0"><feFuncA type="linear" slope="0.08"></feFuncA></feComponentTransfer><feMerge><feMergeNode in="s0"></feMergeNode><feMergeNode in="SourceGraphic"></feMergeNode></feMerge></filter></defs><g><g><g><g class="mindmap"><path d="M89,-40c0,-48.59045 0,-39.58732 0,-96" fill="none" stroke="#BD34D1" stroke-linecap="round" stroke-linejoin="round" stroke-width="4"></path><g transform="translate(55 -162) rotate(0 8 8)"><svg id="s3529926d-851c-4b18-9823-aa55c0a9bbe0" width="16" height="16" viewBox="0 0 16 16" data-icon-name="dog-house" data-icon-partition="g16-2" data-icon-color="#293845"><style>#s3529926d-851c-4b18-9823-aa55c0a9bbe0 *[fill=&#x27;#444444&#x27;], #s3529926d-851c-4b18-9823-aa55c0a9bbe0 *[fill=&#x27;#444&#x27;] {fill:#293845;}#s3529926d-851c-4b18-9823-aa55c0a9bbe0 *[stroke=&#x27;#444444&#x27;], #s3529926d-851c-4b18-9823-aa55c0a9bbe0 *[stroke=&#x27;#444&#x27;] {stroke:#293845;}</style><g><path fill="#444444" d="M15.58105,5.18604l-7-5c-0.34766-0.24805-0.81445-0.24805-1.16211,0l-7,5 c-0.44922,0.32129-0.55371,0.9458-0.23242,1.39502c0.32031,0.4502,0.94629,0.55273,1.39453,0.23291L2,6.51471V15 c0,0.55225,0.44727,1,1,1h10c0.55273,0,1-0.44775,1-1V6.51471C14.34891,6.76394,14.59648,7,14.99902,7 c0.3125,0,0.61914-0.14551,0.81445-0.41895C16.13477,6.13184,16.03027,5.50732,15.58105,5.18604z M12,14h-2v-3 c0-1.10461-0.89545-2-2-2s-2,0.89539-2,2v3H4V5.08612L8,2.229l4,2.85712V14z"></path></g></svg></g><g><text y="-168" font-style="normal" font-size="21" font-weight="normal" fill="#293845" width="45" xml:space="preserve" x="78" font-family="DIN Next, sans-serif" height="28"><tspan x="100.5" y="-147" text-anchor="middle" style="white-space:pre;">Base</tspan></text></g></g><g><g><g class="mindmap"><path d="M89,-172v-10c0,-40 -270,-36 -270,-76v-10" fill="none" stroke="#BD34D1" stroke-linecap="round" stroke-linejoin="round" stroke-width="4"></path><g transform="translate(-234 -288) rotate(0 8 8)"><svg id="sdc81ed9f-a361-48d0-b3d6-39279f31d1b7" width="16" height="16" viewBox="0 0 16 16" data-icon-name="analytics" data-icon-partition="g16-9" data-icon-color="#293845"><style>#sdc81ed9f-a361-48d0-b3d6-39279f31d1b7 *[fill=&#x27;#444444&#x27;], #sdc81ed9f-a361-48d0-b3d6-39279f31d1b7 *[fill=&#x27;#444&#x27;] {fill:#293845;}#sdc81ed9f-a361-48d0-b3d6-39279f31d1b7 *[stroke=&#x27;#444444&#x27;], #sdc81ed9f-a361-48d0-b3d6-39279f31d1b7 *[stroke=&#x27;#444&#x27;] {stroke:#293845;}</style><g><rect x="1" y="2" width="2" height="13" rx="1" ry="1" fill="#444"></rect><rect x="5" y="7" width="2" height="8" rx="1" ry="1" fill="#444444" data-color="color-2"></rect><rect x="9" y="5" width="2" height="10" rx="1" ry="1" fill="#444"></rect><rect x="13" y="10" width="2" height="5" rx="1" ry="1" fill="#444444" data-color="color-2"></rect></g></svg></g><g><text y="-292" font-style="normal" font-size="18" font-weight="normal" fill="#293845" width="83" xml:space="preserve" x="-211" font-family="DIN Next, sans-serif" height="24"><tspan x="-169.5" y="-274" text-anchor="middle" style="white-space:pre;">dashboard</tspan></text></g></g><g><g><g class="mindmap"><path d="M-181,-292v-10c0,-40 -395,-36 -395,-76v-10" fill="none" stroke="#BD34D1" stroke-linecap="round" stroke-linejoin="round" stroke-width="4"></path><g transform="translate(-624 -408) rotate(0 8 8)"><svg id="s1f5dcc24-2739-422d-aacb-2c24cfbee717" width="16" height="16" viewBox="0 0 16 16" data-icon-name="database" data-icon-partition="g16-2" data-icon-color="#293845"><style>#s1f5dcc24-2739-422d-aacb-2c24cfbee717 *[fill=&#x27;#444444&#x27;], #s1f5dcc24-2739-422d-aacb-2c24cfbee717 *[fill=&#x27;#444&#x27;] {fill:#293845;}#s1f5dcc24-2739-422d-aacb-2c24cfbee717 *[stroke=&#x27;#444444&#x27;], #s1f5dcc24-2739-422d-aacb-2c24cfbee717 *[stroke=&#x27;#444&#x27;] {stroke:#293845;}</style><g><path fill="#444444" d="M8,16c3.5,0,7-0.9,7-3V6.4C13.4,7.4,11,8,8,8S2.6,7.4,1,6.4V13C1,15.1,4.5,16,8,16z"></path><path data-color="color-2" fill="#444444" d="M8,6c3.5,0,7-0.9,7-3s-3.5-3-7-3S1,0.9,1,3S4.5,6,8,6z"></path></g></svg></g><g><text y="-412" font-style="normal" font-size="18" font-weight="normal" fill="#293845" width="73" xml:space="preserve" x="-601" font-family="DIN Next, sans-serif" height="24"><tspan x="-564.5" y="-394" text-anchor="middle" style="white-space:pre;">Database</tspan></text></g></g><g><g><g class="mindmap"><path d="M-576,-412v-10c0,-40 0,-36 0,-76v-10" fill="none" stroke="#BD34D1" stroke-linecap="round" stroke-linejoin="round" stroke-width="4"></path><a xlink:href="https://docs.mongodb.com/manual/" target="_blank" rel="noopener noreferrer"><circle cx="-537" cy="-520" r="9.5" fill="#FFFFFF" stroke-width="1" stroke="#DFE6ED"></circle><svg x="-547" y="-530" width="20" height="20" fill="#BD34D1"><path d="M11.5 8H13a2 2 0 110 4h-1.5v2H13a4 4 0 000-8h-1.5v2zM8.5 8V6H7a4 4 0 100 8h1.5v-2H7a2 2 0 110-4h1.5z"></path><path d="M8 9h4v2H8V9z"></path></svg></a><g><text y="-532" font-style="normal" font-size="18" font-weight="normal" fill="#293845" width="74" xml:space="preserve" x="-626" font-family="DIN Next, sans-serif" height="24"><tspan x="-589" y="-514" text-anchor="middle" style="white-space:pre;">MongoDB</tspan></text></g></g></g></g></g><g><g class="mindmap"><path d="M-181,-292v-10c0,-40 -76,-36 -76,-76v-10" fill="none" stroke="#BD34D1" stroke-linecap="round" stroke-linejoin="round" stroke-width="4"></path><g transform="translate(-282 -408) rotate(0 8 8)"><svg id="sc5eb6437-b6c2-47bb-bf98-a21b9af0879b" width="16" height="16" viewBox="0 0 16 16" data-icon-name="plug-2" data-icon-partition="g16-10" data-icon-color="#293845"><style>#sc5eb6437-b6c2-47bb-bf98-a21b9af0879b *[fill=&#x27;#444444&#x27;], #sc5eb6437-b6c2-47bb-bf98-a21b9af0879b *[fill=&#x27;#444&#x27;] {fill:#293845;}#sc5eb6437-b6c2-47bb-bf98-a21b9af0879b *[stroke=&#x27;#444444&#x27;], #sc5eb6437-b6c2-47bb-bf98-a21b9af0879b *[stroke=&#x27;#444&#x27;] {stroke:#293845;}</style><g><path d="M12.649,8.9,13.862,7.63a3.874,3.874,0,0,0,.6-4.682l1.241-1.241A1,1,0,1,0,14.293.293L13.052,1.534a3.874,3.874,0,0,0-4.682.6L7.129,3.379Z" fill="#444444" data-color="color-2"></path><path d="M9.53,9.53,8.47,8.47,6.6,10.345l-.94-.94L7.53,7.53,6.47,6.47,4.6,8.345,3.351,7.1,2.138,8.37a3.874,3.874,0,0,0-.6,4.682L.293,14.293a1,1,0,1,0,1.414,1.414l1.241-1.241a3.874,3.874,0,0,0,4.682-.6l1.241-1.241L7.655,11.405Z" fill="#444"></path></g></svg></g><g><text y="-412" font-style="normal" font-size="18" font-weight="normal" fill="#293845" width="27" xml:space="preserve" x="-259" font-family="DIN Next, sans-serif" height="24"><tspan x="-245.5" y="-394" text-anchor="middle" style="white-space:pre;">API</tspan></text></g></g><g><g><g class="mindmap"><path d="M-257,-412v-10c0,-40 -165,-36 -165,-76v-10" fill="none" stroke="#BD34D1" stroke-linecap="round" stroke-linejoin="round" stroke-width="4"></path><a xlink:href="https://flask.palletsprojects.com/en/1.1.x/" target="_blank" rel="noopener noreferrer"><circle cx="-369" cy="-520" r="9.5" fill="#FFFFFF" stroke-width="1" stroke="#DFE6ED"></circle><svg x="-379" y="-530" width="20" height="20" fill="#BD34D1"><path d="M11.5 8H13a2 2 0 110 4h-1.5v2H13a4 4 0 000-8h-1.5v2zM8.5 8V6H7a4 4 0 100 8h1.5v-2H7a2 2 0 110-4h1.5z"></path><path d="M8 9h4v2H8V9z"></path></svg></a><g><text y="-532" font-style="normal" font-size="18" font-weight="normal" fill="#293845" width="101" xml:space="preserve" x="-485" font-family="DIN Next, sans-serif" height="24"><tspan x="-434.5" y="-514" text-anchor="middle" style="white-space:pre;">Python Flask</tspan></text></g></g></g><g><g class="mindmap"><path d="M-257,-412v-10c0,-40 84,-36 84,-76v-10" fill="none" stroke="#BD34D1" stroke-linecap="round" stroke-linejoin="round" stroke-width="4"></path><a xlink:href="https://flask-socketio.readthedocs.io/en/latest/" target="_blank" rel="noopener noreferrer"><circle cx="-39" cy="-520" r="9.5" fill="#FFFFFF" stroke-width="1" stroke="#DFE6ED"></circle><svg x="-49" y="-530" width="20" height="20" fill="#BD34D1"><path d="M11.5 8H13a2 2 0 110 4h-1.5v2H13a4 4 0 000-8h-1.5v2zM8.5 8V6H7a4 4 0 100 8h1.5v-2H7a2 2 0 110-4h1.5z"></path><path d="M8 9h4v2H8V9z"></path></svg></a><g><text y="-532" font-style="normal" font-size="18" font-weight="normal" fill="#293845" width="263" xml:space="preserve" x="-317" font-family="DIN Next, sans-serif" height="24"><tspan x="-185.5" y="-514" text-anchor="middle" style="white-space:pre;">nRF24 Stream into Flask Socketio</tspan></text></g></g></g></g></g><g><g class="mindmap"><path d="M-181,-292v-10c0,-40 320,-36 320,-76v-10" fill="none" stroke="#BD34D1" stroke-linecap="round" stroke-linejoin="round" stroke-width="4"></path><g transform="translate(77 -408) rotate(0 8 8)"><svg id="sdacb30aa-ee0d-46b1-ad53-1e42b8e1852e" width="16" height="16" viewBox="0 0 16 16" data-icon-name="analytics-88" data-icon-partition="g16-0" data-icon-color="#293845"><style>#sdacb30aa-ee0d-46b1-ad53-1e42b8e1852e *[fill=&#x27;#444444&#x27;], #sdacb30aa-ee0d-46b1-ad53-1e42b8e1852e *[fill=&#x27;#444&#x27;] {fill:#293845;}#sdacb30aa-ee0d-46b1-ad53-1e42b8e1852e *[stroke=&#x27;#444444&#x27;], #sdacb30aa-ee0d-46b1-ad53-1e42b8e1852e *[stroke=&#x27;#444&#x27;] {stroke:#293845;}</style><g><path fill="#444444" d="M15,0H1C0.4,0,0,0.4,0,1v14c0,0.6,0.4,1,1,1h14c0.6,0,1-0.4,1-1V1C16,0.4,15.6,0,15,0z M14,14H2V9h2.5L6,6.8 l4,6L12.5,9H14V14z M14,7h-2.5L10,9.2l-4-6L3.5,7H2V2h12V7z"></path></g></svg></g><g><text y="-412" font-style="normal" font-size="18" font-weight="normal" fill="#293845" width="100" xml:space="preserve" x="100" font-family="DIN Next, sans-serif" height="24"><tspan x="150" y="-394" text-anchor="middle" style="white-space:pre;">Visualisation</tspan></text></g></g><g><g><g class="mindmap"><path d="M138,-412v-10c0,-40 -88,-36 -88,-76v-10" fill="none" stroke="#BD34D1" stroke-linecap="round" stroke-linejoin="round" stroke-width="4"></path><a xlink:href="https://vuejs.org/" target="_blank" rel="noopener noreferrer"><circle cx="77" cy="-520" r="9.5" fill="#FFFFFF" stroke-width="1" stroke="#DFE6ED"></circle><svg x="67" y="-530" width="20" height="20" fill="#BD34D1"><path d="M11.5 8H13a2 2 0 110 4h-1.5v2H13a4 4 0 000-8h-1.5v2zM8.5 8V6H7a4 4 0 100 8h1.5v-2H7a2 2 0 110-4h1.5z"></path><path d="M8 9h4v2H8V9z"></path></svg></a><g><text y="-532" font-style="normal" font-size="18" font-weight="normal" fill="#293845" width="49" xml:space="preserve" x="13" font-family="DIN Next, sans-serif" height="24"><tspan x="37.5" y="-514" text-anchor="middle" style="white-space:pre;">VueJS</tspan></text></g></g></g><g><g class="mindmap"><path d="M138,-412v-10c0,-40 58,-36 58,-76v-10" fill="none" stroke="#BD34D1" stroke-linecap="round" stroke-linejoin="round" stroke-width="4"></path><a xlink:href="https://github.com/devstark-com/vue-google-charts#usage" target="_blank" rel="noopener noreferrer"><circle cx="253" cy="-520" r="9.5" fill="#FFFFFF" stroke-width="1" stroke="#DFE6ED"></circle><svg x="243" y="-530" width="20" height="20" fill="#BD34D1"><path d="M11.5 8H13a2 2 0 110 4h-1.5v2H13a4 4 0 000-8h-1.5v2zM8.5 8V6H7a4 4 0 100 8h1.5v-2H7a2 2 0 110-4h1.5z"></path><path d="M8 9h4v2H8V9z"></path></svg></a><g><text y="-532" font-style="normal" font-size="18" font-weight="normal" fill="#293845" width="109" xml:space="preserve" x="129" font-family="DIN Next, sans-serif" height="24"><tspan x="183.5" y="-514" text-anchor="middle" style="white-space:pre;">Google Charts</tspan></text></g></g></g></g></g></g></g><g><g class="mindmap"><path d="M89,-172v-10c0,-40 386,-36 386,-76v-10" fill="none" stroke="#BD34D1" stroke-linecap="round" stroke-linejoin="round" stroke-width="4"></path><g transform="translate(420 -288) rotate(0 8 8)"><svg id="sd4f3dec2-7f13-4583-9902-9ce4a4d92387" width="16" height="16" viewBox="0 0 16 16" data-icon-name="artificial-intelligence-chip" data-icon-partition="g16-9" data-icon-color="#293845"><style>#sd4f3dec2-7f13-4583-9902-9ce4a4d92387 *[fill=&#x27;#444444&#x27;], #sd4f3dec2-7f13-4583-9902-9ce4a4d92387 *[fill=&#x27;#444&#x27;] {fill:#293845;}#sd4f3dec2-7f13-4583-9902-9ce4a4d92387 *[stroke=&#x27;#444444&#x27;], #sd4f3dec2-7f13-4583-9902-9ce4a4d92387 *[stroke=&#x27;#444&#x27;] {stroke:#293845;}</style><g><path d="M16,6V4H14V3a1,1,0,0,0-1-1H12V0H10V2H6V0H4V2H3A1,1,0,0,0,2,3V4H0V6H2v4H0v2H2v1a1,1,0,0,0,1,1H4v2H6V14h4v2h2V14h1a1,1,0,0,0,1-1V12h2V10H14V6Zm-4,6H4V4h8Z" fill="#444"></path><rect x="6" y="6" width="4" height="4" fill="#444444" data-color="color-2"></rect></g></svg></g><g><text y="-292" font-style="normal" font-size="18" font-weight="normal" fill="#293845" width="86" xml:space="preserve" x="443" font-family="DIN Next, sans-serif" height="24"><tspan x="486" y="-274" text-anchor="middle" style="white-space:pre;">electronics</tspan></text></g></g><g><g><g class="mindmap"><path d="M474,-292v-10c0,-40 -86,-36 -86,-76v-10" fill="none" stroke="#BD34D1" stroke-linecap="round" stroke-linejoin="round" stroke-width="4"></path><a xlink:href="https://www.raspberrypi.org/products/raspberry-pi-zero/" target="_blank" rel="noopener noreferrer"><circle cx="460" cy="-400" r="9.5" fill="#FFFFFF" stroke-width="1" stroke="#DFE6ED"></circle><svg x="450" y="-410" width="20" height="20" fill="#BD34D1"><path d="M11.5 8H13a2 2 0 110 4h-1.5v2H13a4 4 0 000-8h-1.5v2zM8.5 8V6H7a4 4 0 100 8h1.5v-2H7a2 2 0 110-4h1.5z"></path><path d="M8 9h4v2H8V9z"></path></svg></a><g><text y="-412" font-style="normal" font-size="18" font-weight="normal" fill="#293845" width="140" xml:space="preserve" x="305" font-family="DIN Next, sans-serif" height="24"><tspan x="375" y="-394" text-anchor="middle" style="white-space:pre;">Raspberry Pi Zero</tspan></text></g></g></g><g><g class="mindmap"><path d="M474,-292v-10c0,-40 104,-36 104,-76v-10" fill="none" stroke="#BD34D1" stroke-linecap="round" stroke-linejoin="round" stroke-width="4"></path><a xlink:href="https://www.sparkfun.com/datasheets/Components/SMD/nRF24L01Pluss_Preliminary_Product_Specification_v1_0.pdf" target="_blank" rel="noopener noreferrer"><circle cx="634" cy="-400" r="9.5" fill="#FFFFFF" stroke-width="1" stroke="#DFE6ED"></circle><svg x="624" y="-410" width="20" height="20" fill="#BD34D1"><path d="M11.5 8H13a2 2 0 110 4h-1.5v2H13a4 4 0 000-8h-1.5v2zM8.5 8V6H7a4 4 0 100 8h1.5v-2H7a2 2 0 110-4h1.5z"></path><path d="M8 9h4v2H8V9z"></path></svg></a><g><text y="-412" font-style="normal" font-size="18" font-weight="normal" fill="#293845" width="107" xml:space="preserve" x="512" font-family="DIN Next, sans-serif" height="24"><tspan x="565.5" y="-394" text-anchor="middle" style="white-space:pre;">Radio module</tspan></text></g></g></g></g></g><g><g class="mindmap"><path d="M89,-172v-10c0,-40 656,-36 656,-76v-10" fill="none" stroke="#BD34D1" stroke-linecap="round" stroke-linejoin="round" stroke-width="4"></path><g transform="translate(708 -288) rotate(0 8 8)"><svg id="sbcd8f825-5c91-4aae-8662-a22f37de7f05" width="16" height="16" viewBox="0 0 24 24" data-icon-name="3d-printing" data-icon-partition="g24-12" data-icon-color="#293845"><style>#sbcd8f825-5c91-4aae-8662-a22f37de7f05 *[fill=&#x27;#444444&#x27;], #sbcd8f825-5c91-4aae-8662-a22f37de7f05 *[fill=&#x27;#444&#x27;] {fill:#293845;}#sbcd8f825-5c91-4aae-8662-a22f37de7f05 *[stroke=&#x27;#444444&#x27;], #sbcd8f825-5c91-4aae-8662-a22f37de7f05 *[stroke=&#x27;#444&#x27;] {stroke:#293845;}</style><g><path d="M18.459,12.105l-6-3a1,1,0,0,0-.895,0l-6,3A1,1,0,0,0,5.012,13v7a1,1,0,0,0,.553.895l6,3a1,1,0,0,0,.894,0l6-3A1,1,0,0,0,19.012,20V13A1,1,0,0,0,18.459,12.105Zm-6.447-.987L15.776,13l-3.764,1.882L8.248,13Zm-5,3.5,4,2v4.764l-4-2Zm6,6.764V16.618l4-2v4.764Z" fill="#444444" data-color="color-2"></path><path d="M24,0H0V2H7V3a1,1,0,0,0,.757.97L11,4.78V6a1,1,0,0,0,2,0V4.78l3.243-.81A1,1,0,0,0,17,3V2h7Z" fill="#444"></path></g></svg></g><g><text y="-292" font-style="normal" font-size="18" font-weight="normal" fill="#293845" width="51" xml:space="preserve" x="731" font-family="DIN Next, sans-serif" height="24"><tspan x="756.5" y="-274" text-anchor="middle" style="white-space:pre;">casing</tspan></text></g></g><g><g><g class="mindmap"><path d="M745,-292v-10c0,-40 0,-36 0,-76v-10" fill="none" stroke="#BD34D1" stroke-linecap="round" stroke-linejoin="round" stroke-width="4"></path><a xlink:href="https://www.thingiverse.com/thing:1595429" target="_blank" rel="noopener noreferrer"><circle cx="794" cy="-400" r="9.5" fill="#FFFFFF" stroke-width="1" stroke="#DFE6ED"></circle><svg x="784" y="-410" width="20" height="20" fill="#BD34D1"><path d="M11.5 8H13a2 2 0 110 4h-1.5v2H13a4 4 0 000-8h-1.5v2zM8.5 8V6H7a4 4 0 100 8h1.5v-2H7a2 2 0 110-4h1.5z"></path><path d="M8 9h4v2H8V9z"></path></svg></a><g><text y="-412" font-style="normal" font-size="18" font-weight="normal" fill="#293845" width="93" xml:space="preserve" x="686" font-family="DIN Next, sans-serif" height="24"><tspan x="732.5" y="-394" text-anchor="middle" style="white-space:pre;">petg pi case</tspan></text></g></g></g></g></g></g></g><g><g class="mindmap"><path d="M89,32c0,48.59045 0,39.58732 0,96" fill="none" stroke="#2C88D9" stroke-linecap="round" stroke-linejoin="round" stroke-width="4"></path><g transform="translate(55 138) rotate(0 8 8)"><svg id="s75115fae-ebf8-46c3-9e4e-80624476ae18" width="16" height="16" viewBox="0 0 24 24" data-icon-name="boat-front" data-icon-partition="g24-1" data-icon-color="#293845"><style>#s75115fae-ebf8-46c3-9e4e-80624476ae18 *[fill=&#x27;#444444&#x27;], #s75115fae-ebf8-46c3-9e4e-80624476ae18 *[fill=&#x27;#444&#x27;] {fill:#293845;}#s75115fae-ebf8-46c3-9e4e-80624476ae18 *[stroke=&#x27;#444444&#x27;], #s75115fae-ebf8-46c3-9e4e-80624476ae18 *[stroke=&#x27;#444&#x27;] {stroke:#293845;}</style><g><path fill="#444444" d="M14,1c0-0.552-0.448-1-1-1h-2c-0.552,0-1,0.448-1,1v2h4V1z"></path><path data-color="color-2" fill="#444444" d="M23,18.101c-0.552,0-1,0.448-1,1c0,1.654-1.346,3-3,3c-1.087,0-2.092-0.605-2.622-1.579 c-0.351-0.644-1.406-0.644-1.757,0c-0.53,0.974-1.535,1.579-2.622,1.579s-2.092-0.605-2.622-1.579c-0.351-0.644-1.406-0.644-1.757,0 C7.092,21.496,6.087,22.101,5,22.101c-1.654,0-3-1.346-3-3c0-0.552-0.448-1-1-1s-1,0.448-1,1c0,2.757,2.243,5,5,5 c1.327,0,2.578-0.534,3.5-1.451c0.922,0.917,2.173,1.451,3.5,1.451s2.578-0.534,3.5-1.451c0.922,0.917,2.173,1.451,3.5,1.451 c2.757,0,5-2.243,5-5C24,18.549,23.552,18.101,23,18.101z"></path><path fill="#444444" d="M4.105,19.447c0.247,0.494,0.846,0.694,1.342,0.447c0.494-0.247,0.694-0.848,0.447-1.342l-1.572-3.144 L12,11.144l7.677,4.265l-1.572,3.144c-0.247,0.494-0.047,1.095,0.447,1.342C18.696,19.966,18.849,20,18.999,20 c0.367,0,0.72-0.202,0.896-0.553l2-4c0.239-0.479,0.059-1.062-0.409-1.321L20,13.301V6c0-0.552-0.448-1-1-1H5C4.448,5,4,5.448,4,6 v7.301l-1.486,0.825c-0.468,0.26-0.648,0.842-0.409,1.321L4.105,19.447z"></path></g></svg></g><g><text y="132" font-style="normal" font-size="21" font-weight="normal" fill="#293845" width="45" xml:space="preserve" x="78" font-family="DIN Next, sans-serif" height="28"><tspan x="100.5" y="153" text-anchor="middle" style="white-space:pre;">Buoy</tspan></text></g></g><g><g><g class="mindmap"><path d="M89,164v10c0,40 -822,36 -822,76v10" fill="none" stroke="#2C88D9" stroke-linecap="round" stroke-linejoin="round" stroke-width="4"></path><g transform="translate(-771 264) rotate(0 8 8)"><svg id="s5bacbe8b-95fd-4600-943c-56c444e2c3f0" width="16" height="16" viewBox="0 0 24 24" data-icon-name="3d-printing" data-icon-partition="g24-12" data-icon-color="#293845"><style>#s5bacbe8b-95fd-4600-943c-56c444e2c3f0 *[fill=&#x27;#444444&#x27;], #s5bacbe8b-95fd-4600-943c-56c444e2c3f0 *[fill=&#x27;#444&#x27;] {fill:#293845;}#s5bacbe8b-95fd-4600-943c-56c444e2c3f0 *[stroke=&#x27;#444444&#x27;], #s5bacbe8b-95fd-4600-943c-56c444e2c3f0 *[stroke=&#x27;#444&#x27;] {stroke:#293845;}</style><g><path d="M18.459,12.105l-6-3a1,1,0,0,0-.895,0l-6,3A1,1,0,0,0,5.012,13v7a1,1,0,0,0,.553.895l6,3a1,1,0,0,0,.894,0l6-3A1,1,0,0,0,19.012,20V13A1,1,0,0,0,18.459,12.105Zm-6.447-.987L15.776,13l-3.764,1.882L8.248,13Zm-5,3.5,4,2v4.764l-4-2Zm6,6.764V16.618l4-2v4.764Z" fill="#444444" data-color="color-2"></path><path d="M24,0H0V2H7V3a1,1,0,0,0,.757.97L11,4.78V6a1,1,0,0,0,2,0V4.78l3.243-.81A1,1,0,0,0,17,3V2h7Z" fill="#444"></path></g></svg></g><g><text y="260" font-style="normal" font-size="18" font-weight="normal" fill="#293845" width="53" xml:space="preserve" x="-748" font-family="DIN Next, sans-serif" height="24"><tspan x="-721.5" y="278" text-anchor="middle" style="white-space:pre;">Casing</tspan></text></g></g><g><g><g class="mindmap"><path d="M-733,284v10c0,40 -114,36 -114,76v10" fill="none" stroke="#2C88D9" stroke-linecap="round" stroke-linejoin="round" stroke-width="4"></path><g><text y="380" font-style="normal" font-size="18" font-weight="normal" fill="#293845" width="116" xml:space="preserve" x="-905" font-family="DIN Next, sans-serif" height="24"><tspan x="-847" y="398" text-anchor="middle" style="white-space:pre;">Water Proofing</tspan></text></g></g><g><g><g class="mindmap"><path d="M-847,404v10c0,40 -199,36 -199,76v10" fill="none" stroke="#2C88D9" stroke-linecap="round" stroke-linejoin="round" stroke-width="4"></path><a xlink:href="https://www.makerbot.com/professional/post-processing/sanding/" target="_blank" rel="noopener noreferrer"><circle cx="-1012" cy="512" r="9.5" fill="#FFFFFF" stroke-width="1" stroke="#DFE6ED"></circle><svg x="-1022" y="502" width="20" height="20" fill="#2C88D9"><path d="M11.5 8H13a2 2 0 110 4h-1.5v2H13a4 4 0 000-8h-1.5v2zM8.5 8V6H7a4 4 0 100 8h1.5v-2H7a2 2 0 110-4h1.5z"></path><path d="M8 9h4v2H8V9z"></path></svg></a><g><text y="500" font-style="normal" font-size="18" font-weight="normal" fill="#293845" width="64" xml:space="preserve" x="-1091" font-family="DIN Next, sans-serif" height="24"><tspan x="-1059" y="518" text-anchor="middle" style="white-space:pre;">Sanding</tspan></text></g></g></g><g><g class="mindmap"><path d="M-847,404v10c0,40 -65,36 -65,76v10" fill="none" stroke="#2C88D9" stroke-linecap="round" stroke-linejoin="round" stroke-width="4"></path><g><text y="500" font-style="normal" font-size="18" font-weight="normal" fill="#293845" width="95" xml:space="preserve" x="-960" font-family="DIN Next, sans-serif" height="24"><tspan x="-912.5" y="518" text-anchor="middle" style="white-space:pre;">filler primer</tspan></text></g></g></g><g><g class="mindmap"><path d="M-847,404v10c0,40 69,36 69,76v10" fill="none" stroke="#2C88D9" stroke-linecap="round" stroke-linejoin="round" stroke-width="4"></path><g><text y="500" font-style="normal" font-size="18" font-weight="normal" fill="#293845" width="89" xml:space="preserve" x="-823" font-family="DIN Next, sans-serif" height="24"><tspan x="-778.5" y="518" text-anchor="middle" style="white-space:pre;">epoxy resin</tspan></text></g></g></g><g><g class="mindmap"><path d="M-847,404v10c0,40 199,36 199,76v10" fill="none" stroke="#2C88D9" stroke-linecap="round" stroke-linejoin="round" stroke-width="4"></path><g><text y="500" font-style="normal" font-size="18" font-weight="normal" fill="#293845" width="88" xml:space="preserve" x="-692" font-family="DIN Next, sans-serif" height="24"><tspan x="-648" y="518" text-anchor="middle" style="white-space:pre;">ahesive gel</tspan></text></g></g></g></g></g><g><g class="mindmap"><path d="M-733,284v10c0,40 211,36 211,76v10" fill="none" stroke="#2C88D9" stroke-linecap="round" stroke-linejoin="round" stroke-width="4"></path><g><text y="380" font-style="normal" font-size="18" font-weight="normal" fill="#293845" width="80" xml:space="preserve" x="-562" font-family="DIN Next, sans-serif" height="24"><tspan x="-522" y="398" text-anchor="middle" style="white-space:pre;">Protection</tspan></text></g></g><g><g><g class="mindmap"><path d="M-522,404v10c0,40 0,36 0,76v10" fill="none" stroke="#2C88D9" stroke-linecap="round" stroke-linejoin="round" stroke-width="4"></path><g><text y="500" font-style="normal" font-size="18" font-weight="normal" fill="#293845" width="79" xml:space="preserve" x="-562" font-family="DIN Next, sans-serif" height="24"><tspan x="-522.5" y="518" text-anchor="middle" style="white-space:pre;">Foam ring</tspan></text></g></g></g></g></g><g><g class="mindmap"><path d="M-733,284v10c0,40 326,36 326,76v10" fill="none" stroke="#2C88D9" stroke-linecap="round" stroke-linejoin="round" stroke-width="4"></path><g><text y="380" font-style="normal" font-size="18" font-weight="normal" fill="#293845" width="65" xml:space="preserve" x="-440" font-family="DIN Next, sans-serif" height="24"><tspan x="-407.5" y="398" text-anchor="middle" style="white-space:pre;">Material</tspan></text></g></g><g><g><g class="mindmap"><path d="M-408,404v10c0,40 0,36 0,76v10" fill="none" stroke="#2C88D9" stroke-linecap="round" stroke-linejoin="round" stroke-width="4"></path><g><text y="500" font-style="normal" font-size="18" font-weight="normal" fill="#293845" width="42" xml:space="preserve" x="-429" font-family="DIN Next, sans-serif" height="24"><tspan x="-408" y="518" text-anchor="middle" style="white-space:pre;">PETG</tspan></text></g></g></g></g></g></g></g><g><g class="mindmap"><path d="M89,164v10c0,40 379,36 379,76v10" fill="none" stroke="#2C88D9" stroke-linecap="round" stroke-linejoin="round" stroke-width="4"></path><g transform="translate(413 264) rotate(0 8 8)"><svg id="s8b74b93e-cc3e-47bf-bacc-901136a10cf6" width="16" height="16" viewBox="0 0 16 16" data-icon-name="artificial-intelligence-chip" data-icon-partition="g16-9" data-icon-color="#293845"><style>#s8b74b93e-cc3e-47bf-bacc-901136a10cf6 *[fill=&#x27;#444444&#x27;], #s8b74b93e-cc3e-47bf-bacc-901136a10cf6 *[fill=&#x27;#444&#x27;] {fill:#293845;}#s8b74b93e-cc3e-47bf-bacc-901136a10cf6 *[stroke=&#x27;#444444&#x27;], #s8b74b93e-cc3e-47bf-bacc-901136a10cf6 *[stroke=&#x27;#444&#x27;] {stroke:#293845;}</style><g><path d="M16,6V4H14V3a1,1,0,0,0-1-1H12V0H10V2H6V0H4V2H3A1,1,0,0,0,2,3V4H0V6H2v4H0v2H2v1a1,1,0,0,0,1,1H4v2H6V14h4v2h2V14h1a1,1,0,0,0,1-1V12h2V10H14V6Zm-4,6H4V4h8Z" fill="#444"></path><rect x="6" y="6" width="4" height="4" fill="#444444" data-color="color-2"></rect></g></svg></g><g><text y="260" font-style="normal" font-size="18" font-weight="normal" fill="#293845" width="87" xml:space="preserve" x="436" font-family="DIN Next, sans-serif" height="24"><tspan x="479.5" y="278" text-anchor="middle" style="white-space:pre;">Electronics</tspan></text></g></g><g><g><g class="mindmap"><path d="M468,284v10c0,40 -150,36 -150,76v10" fill="none" stroke="#2C88D9" stroke-linecap="round" stroke-linejoin="round" stroke-width="4"></path><g><text y="380" font-style="normal" font-size="18" font-weight="normal" fill="#293845" width="64" xml:space="preserve" x="286" font-family="DIN Next, sans-serif" height="24"><tspan x="318" y="398" text-anchor="middle" style="white-space:pre;">Sensors</tspan></text></g></g><g><g><g class="mindmap"><path d="M318,404v10c0,40 -419,36 -419,76v10" fill="none" stroke="#2C88D9" stroke-linecap="round" stroke-linejoin="round" stroke-width="4"></path><g><text y="500" font-style="normal" font-size="18" font-weight="normal" fill="#293845" width="53" xml:space="preserve" x="-128" font-family="DIN Next, sans-serif" height="24"><tspan x="-101.5" y="518" text-anchor="middle" style="white-space:pre;">Motion</tspan></text></g></g><g><g><g class="mindmap"><path d="M-102,524v10c0,40 -174,36 -174,76v10" fill="none" stroke="#2C88D9" stroke-linecap="round" stroke-linejoin="round" stroke-width="4"></path><g><text y="620" font-style="normal" font-size="18" font-weight="normal" fill="#293845" width="113" xml:space="preserve" x="-333" font-family="DIN Next, sans-serif" height="24"><tspan x="-276.5" y="638" text-anchor="middle" style="white-space:pre;">accelerometer</tspan></text></g></g></g><g><g class="mindmap"><path d="M-102,524v10c0,40 -36,36 -36,76v10" fill="none" stroke="#2C88D9" stroke-linecap="round" stroke-linejoin="round" stroke-width="4"></path><g><text y="620" font-style="normal" font-size="18" font-weight="normal" fill="#293845" width="80" xml:space="preserve" x="-178" font-family="DIN Next, sans-serif" height="24"><tspan x="-138" y="638" text-anchor="middle" style="white-space:pre;">gyroscope</tspan></text></g></g></g><g><g class="mindmap"><path d="M-102,524v10c0,40 104,36 104,76v10" fill="none" stroke="#2C88D9" stroke-linecap="round" stroke-linejoin="round" stroke-width="4"></path><g><text y="620" font-style="normal" font-size="18" font-weight="normal" fill="#293845" width="115" xml:space="preserve" x="-56" font-family="DIN Next, sans-serif" height="24"><tspan x="1.5" y="638" text-anchor="middle" style="white-space:pre;">magnetometer</tspan></text></g></g></g><g><g class="mindmap"><path d="M-102,524v10c0,40 218,36 218,76v10" fill="none" stroke="#2C88D9" stroke-linecap="round" stroke-linejoin="round" stroke-width="4"></path><g><text y="620" font-style="normal" font-size="18" font-weight="normal" fill="#293845" width="29" xml:space="preserve" x="101" font-family="DIN Next, sans-serif" height="24"><tspan x="115.5" y="638" text-anchor="middle" style="white-space:pre;">gps</tspan></text></g></g></g></g></g><g><g class="mindmap"><path d="M318,404v10c0,40 -91,36 -91,76v10" fill="none" stroke="#2C88D9" stroke-linecap="round" stroke-linejoin="round" stroke-width="4"></path><g><text y="500" font-style="normal" font-size="18" font-weight="normal" fill="#293845" width="100" xml:space="preserve" x="177" font-family="DIN Next, sans-serif" height="24"><tspan x="227" y="518" text-anchor="middle" style="white-space:pre;">Temperature</tspan></text></g></g><g><g><g class="mindmap"><path d="M227,524v10c0,40 -32,36 -32,76v10" fill="none" stroke="#2C88D9" stroke-linecap="round" stroke-linejoin="round" stroke-width="4"></path><g><text y="620" font-style="normal" font-size="18" font-weight="normal" fill="#293845" width="45" xml:space="preserve" x="172" font-family="DIN Next, sans-serif" height="24"><tspan x="194.5" y="638" text-anchor="middle" style="white-space:pre;">water</tspan></text></g></g></g><g><g class="mindmap"><path d="M227,524v10c0,40 43,36 43,76v10" fill="none" stroke="#2C88D9" stroke-linecap="round" stroke-linejoin="round" stroke-width="4"></path><g><text y="620" font-style="normal" font-size="18" font-weight="normal" fill="#293845" width="22" xml:space="preserve" x="259" font-family="DIN Next, sans-serif" height="24"><tspan x="270" y="638" text-anchor="middle" style="white-space:pre;">air</tspan></text></g></g></g></g></g><g><g class="mindmap"><path d="M318,404v10c0,40 82,36 82,76v10" fill="none" stroke="#2C88D9" stroke-linecap="round" stroke-linejoin="round" stroke-width="4"></path><g><text y="500" font-style="normal" font-size="18" font-weight="normal" fill="#293845" width="50" xml:space="preserve" x="375" font-family="DIN Next, sans-serif" height="24"><tspan x="400" y="518" text-anchor="middle" style="white-space:pre;">Power</tspan></text></g></g><g><g><g class="mindmap"><path d="M400,524v10c0,40 -43,36 -43,76v10" fill="none" stroke="#2C88D9" stroke-linecap="round" stroke-linejoin="round" stroke-width="4"></path><g><text y="620" font-style="normal" font-size="18" font-weight="normal" fill="#293845" width="68" xml:space="preserve" x="323" font-family="DIN Next, sans-serif" height="24"><tspan x="357" y="638" text-anchor="middle" style="white-space:pre;">charging</tspan></text></g></g></g><g><g class="mindmap"><path d="M400,524v10c0,40 55,36 55,76v10" fill="none" stroke="#2C88D9" stroke-linecap="round" stroke-linejoin="round" stroke-width="4"></path><g><text y="620" font-style="normal" font-size="18" font-weight="normal" fill="#293845" width="43" xml:space="preserve" x="433" font-family="DIN Next, sans-serif" height="24"><tspan x="454.5" y="638" text-anchor="middle" style="white-space:pre;">using</tspan></text></g></g></g></g></g><g><g class="mindmap"><path d="M318,404v10c0,40 235,36 235,76v10" fill="none" stroke="#2C88D9" stroke-linecap="round" stroke-linejoin="round" stroke-width="4"></path><g><text y="500" font-style="normal" font-size="18" font-weight="normal" fill="#293845" width="70" xml:space="preserve" x="518" font-family="DIN Next, sans-serif" height="24"><tspan x="553" y="518" text-anchor="middle" style="white-space:pre;">Humidity</tspan></text></g></g></g><g><g class="mindmap"><path d="M318,404v10c0,40 361,36 361,76v10" fill="none" stroke="#2C88D9" stroke-linecap="round" stroke-linejoin="round" stroke-width="4"></path><g><text y="500" font-style="normal" font-size="18" font-weight="normal" fill="#293845" width="97" xml:space="preserve" x="630" font-family="DIN Next, sans-serif" height="24"><tspan x="678.5" y="518" text-anchor="middle" style="white-space:pre;">Air pressure</tspan></text></g></g></g><g><g class="mindmap"><path d="M318,404v10c0,40 552,36 552,76v10" fill="none" stroke="#2C88D9" stroke-linecap="round" stroke-linejoin="round" stroke-width="4"></path><g><text y="500" font-style="normal" font-size="18" font-weight="normal" fill="#293845" width="35" xml:space="preserve" x="852" font-family="DIN Next, sans-serif" height="24"><tspan x="869.5" y="518" text-anchor="middle" style="white-space:pre;">time</tspan></text></g></g><g><g><g class="mindmap"><path d="M869,524v10c0,40 0,36 0,76v10" fill="none" stroke="#2C88D9" stroke-linecap="round" stroke-linejoin="round" stroke-width="4"></path><g><text y="620" font-style="normal" font-size="18" font-weight="normal" fill="#293845" width="200" xml:space="preserve" x="769" font-family="DIN Next, sans-serif" height="24"><tspan x="869" y="638" text-anchor="middle" style="white-space:pre;">RTC trigger control power</tspan></text></g></g></g></g></g></g></g><g><g class="mindmap"><path d="M468,284v10c0,40 672,36 672,76v10" fill="none" stroke="#2C88D9" stroke-linecap="round" stroke-linejoin="round" stroke-width="4"></path><g><text y="380" font-style="normal" font-size="18" font-weight="normal" fill="#293845" width="50" xml:space="preserve" x="1115" font-family="DIN Next, sans-serif" height="24"><tspan x="1140" y="398" text-anchor="middle" style="white-space:pre;">Power</tspan></text></g></g><g><g><g class="mindmap"><path d="M1140,404v10c0,40 -75,36 -75,76v10" fill="none" stroke="#2C88D9" stroke-linecap="round" stroke-linejoin="round" stroke-width="4"></path><g><text y="500" font-style="normal" font-size="18" font-weight="normal" fill="#293845" width="107" xml:space="preserve" x="1011" font-family="DIN Next, sans-serif" height="24"><tspan x="1064.5" y="518" text-anchor="middle" style="white-space:pre;">Solar charger</tspan></text></g></g></g><g><g class="mindmap"><path d="M1140,404v10c0,40 75,36 75,76v10" fill="none" stroke="#2C88D9" stroke-linecap="round" stroke-linejoin="round" stroke-width="4"></path><g><text y="500" font-style="normal" font-size="18" font-weight="normal" fill="#293845" width="109" xml:space="preserve" x="1160" font-family="DIN Next, sans-serif" height="24"><tspan x="1214.5" y="518" text-anchor="middle" style="white-space:pre;">18650 battery</tspan></text></g></g></g></g></g></g></g></g></g></g><g><rect x="1" y="-40" width="177" height="72" fill="#FFFFFF" rx="6" ry="6"></rect><g><text y="-22" font-style="normal" font-size="27" font-weight="normal" fill="#293845" width="137" xml:space="preserve" x="21" font-family="DIN Next, sans-serif" height="36"><tspan x="89.5" y="5" text-anchor="middle" style="white-space:pre;">Smart Buoy</tspan></text></g></g></g></svg>